{
  "accessors": [
    {
      "bufferView": 2,
      "componentType": 5126,
      "count": 8860,
      "max": [
        0.3798123896121979,
        0.4875393509864807,
        0.17146450281143188
      ],
      "min": [
        -0.3767538368701935,
        -0.4881945848464966,
        -0.025189800187945366
      ],
      "type": "VEC3"
    },
    {
      "bufferView": 2,
      "byteOffset": 106320,
      "componentType": 5126,
      "count": 8860,
      "max": [
        0.9950118660926819,
        0.999513566493988,
        0.9999966621398926
      ],
      "min": [
        -0.994962751865387,
        -0.9994149208068848,
        -0.9999969601631165
      ],
      "type": "VEC3"
    },
    {
      "bufferView": 1,
      "componentType": 5126,
      "count": 8860,
      "max": [
        1.0,
        0.9852793216705322
      ],
      "min": [
        -3.6752259013894673e-09,
        -5.799451585630777e-09
      ],
      "type": "VEC2"
    },
    {
      "bufferView": 0,
      "componentType": 5125,
      "count": 43392,
      "type": "SCALAR"
    }
  ],
  "asset": {
    "extras": {
      "author": "skeeeyee (https://sketchfab.com/skeeeyee)",
      "license": "SKETCHFAB Standard (https://sketchfab.com/licenses)",
      "source": "https://sketchfab.com/3d-models/cat-food-bowl-scan-3f91c04d02b646fd92b6996561ad7a2f",
      "title": "cat food bowl (scan)"
    },
    "generator": "Sketchfab-16.68.0",
    "version": "2.0"
  },
  "bufferViews": [
    {
      "buffer": 0,
      "byteLength": 173568,
      "name": "floatBufferViews",
      "target": 34963
    },
    {
      "buffer": 0,
      "byteLength": 70880,
      "byteOffset": 173568,
      "byteStride": 8,
      "name": "floatBufferViews",
      "target": 34962
    },
    {
      "buffer": 0,
      "byteLength": 212640,
      "byteOffset": 244448,
      "byteStride": 12,
      "name": "floatBufferViews",
      "target": 34962
    }
  ],
  "buffers": [
    {
      "byteLength": 457088,
      "uri": "scene.bin"
    }
  ],
  "images": [
    {
      "uri": "textures/Material_0.001_baseColor.jpeg"
    }
  ],
  "materials": [
    {
      "doubleSided": true,
      "name": "Material_0.001",
      "pbrMetallicRoughness": {
        "baseColorTexture": {
          "index": 0
        },
        "metallicFactor": 0.0,
        "roughnessFactor": 0.41980121927948316
      }
    }
  ],
  "meshes": [
    {
      "name": "Mesh_0.005_Material_0.001_0",
      "primitives": [
        {
          "attributes": {
            "NORMAL": 1,
            "POSITION": 0,
            "TEXCOORD_0": 2
          },
          "indices": 3,
          "material": 0,
          "mode": 4
        }
      ]
    }
  ],
  "nodes": [
    {
      "children": [
        1
      ],
      "matrix": [
        1.0,
        0.0,
        0.0,
        0.0,
        0.0,
        2.220446049250313e-16,
        -1.0,
        0.0,
        0.0,
        1.0,
        2.220446049250313e-16,
        0.0,
        0.0,
        0.0,
        0.0,
        1.0
      ],
      "name": "Sketchfab_model"
    },
    {
      "children": [
        2
      ],
      "matrix": [
        0.009999999776482582,
        0.0,
        0.0,
        0.0,
        0.0,
        0.0,
        0.009999999776482582,
        0.0,
        0.0,
        -0.009999999776482582,
        0.0,
        0.0,
        0.0,
        0.0,
        0.0,
        1.0
      ],
      "name": "cat food bowl.fbx"
    },
    {
      "children": [
        3
      ],
      "name": "RootNode"
    },
    {
      "children": [
        4
      ],
      "matrix": [
        11.606810011066301,
        -1.0569629029190422,
        -22.90572807995565,
        0.0,
        -22.92976787081044,
        -0.3965419359983958,
        -11.600693426159866,
        0.0,
        0.12367232526085493,
        25.675538355577274,
        -1.1221058017309815,
        0.0,
        0.0,
        10.815863609313965,
        0.0,
        1.0
      ],
      "name": "Mesh_0.005"
    },
    {
      "mesh": 0,
      "name": "Mesh_0.005_Material_0.001_0"
    }
  ],
  "samplers": [
    {
      "magFilter": 9729,
      "minFilter": 9987,
      "wrapS": 10497,
      "wrapT": 10497
    }
  ],
  "scene": 0,
  "scenes": [
    {
      "name": "Sketchfab_Scene",
      "nodes": [
        0
      ]
    }
  ],
  "textures": [
    {
      "sampler": 0,
      "source": 0
    }
  ]
}
